HIERARCHY
ROOT Hips
{
	OFFSET 0.000000 0.000000 0.000000
	CHANNELS 6 Xposition Yposition Zposition Xrotation Yrotation Zrotation
	JOINT LeftUpLeg_virtual
	{
		OFFSET 0.000000 0.000000 0.000000
		CHANNELS 3 Xrotation Yrotation Zrotation
		JOINT LeftUpLeg
		{
			OFFSET 11.394100 -6.187798 -0.413800
			CHANNELS 3 Xrotation Yrotation Zrotation
			JOINT LeftLeg
			{
				OFFSET 0.430247 -32.302673 3.732800
				CHANNELS 3 Xrotation Yrotation Zrotation
				JOINT LeftFoot
				{
					OFFSET -0.430247 -48.264931 -6.423300
					CHANNELS 3 Xrotation Yrotation Zrotation
					JOINT LeftToeBase
					{
						OFFSET 4.230900 -16.068199 23.438400
						CHANNELS 3 Xrotation Yrotation Zrotation
						JOINT LeftToe_End
						{
							OFFSET 4.510700 0.695400 19.974600
							CHANNELS 3 Xrotation Yrotation Zrotation
							End Site
							{
								OFFSET 0 0 0
							}
						}
					}
				}
			}
		}
	}
	JOINT RightUpLeg_virtual
	{
		OFFSET 0.000000 0.000000 0.000000
		CHANNELS 3 Xrotation Yrotation Zrotation
		JOINT RightUpLeg
		{
			OFFSET -11.333700 -6.187798 -0.413800
			CHANNELS 3 Xrotation Yrotation Zrotation
			JOINT RightLeg
			{
				OFFSET -0.430392 -32.302628 3.733000
				CHANNELS 3 Xrotation Yrotation Zrotation
				JOINT RightFoot
				{
					OFFSET 0.430392 -48.264973 -6.423500
					CHANNELS 3 Xrotation Yrotation Zrotation
					JOINT RightToeBase
					{
						OFFSET -4.230900 -16.068199 23.438400
						CHANNELS 3 Xrotation Yrotation Zrotation
						JOINT RightToe_End
						{
							OFFSET -4.510700 0.695400 19.974600
							CHANNELS 3 Xrotation Yrotation Zrotation
							End Site
							{
								OFFSET 0 0 0
							}
						}
					}
				}
			}
		}
	}
	JOINT Spine_virtual
	{
		OFFSET 0.000000 0.000000 0.000000
		CHANNELS 3 Xrotation Yrotation Zrotation
		JOINT Spine
		{
			OFFSET -0.002400 12.777504 0.315300
			CHANNELS 3 Xrotation Yrotation Zrotation
			JOINT Spine1
			{
				OFFSET -0.002067 5.816869 0.032633
				CHANNELS 3 Xrotation Yrotation Zrotation
				JOINT Spine1_split
				{
					OFFSET -0.002067 5.816869 0.032633
					CHANNELS 3 Xrotation Yrotation Zrotation
					JOINT Spine2
					{
						OFFSET -0.002067 5.816869 0.032633
						CHANNELS 3 Xrotation Yrotation Zrotation
						JOINT Neck_virtual
						{
							OFFSET 0.000000 0.000000 0.000000
							CHANNELS 3 Xrotation Yrotation Zrotation
							JOINT Neck
							{
								OFFSET -0.003700 21.199493 -0.826900
								CHANNELS 3 Xrotation Yrotation Zrotation
								JOINT Head
								{
									OFFSET 0.000000 20.442200 4.834800
									CHANNELS 3 Xrotation Yrotation Zrotation
									JOINT HeadTop_End
									{
										OFFSET 0.000000 34.668396 4.968400
										CHANNELS 3 Xrotation Yrotation Zrotation
										End Site
										{
											OFFSET 0 0 0
										}
									}
								}
							}
						}
						JOINT LeftShoulder_virtual
						{
							OFFSET 0.000000 0.000000 0.000000
							CHANNELS 3 Xrotation Yrotation Zrotation
							JOINT LeftShoulder
							{
								OFFSET 3.288150 8.794197 -1.372250
								CHANNELS 3 Xrotation Yrotation Zrotation
								JOINT LeftShoulder_split
								{
									OFFSET 3.288150 8.794197 -1.372250
									CHANNELS 3 Xrotation Yrotation Zrotation
									JOINT LeftArm
									{
										OFFSET 11.953299 -2.279007 -0.146200
										CHANNELS 3 Xrotation Yrotation Zrotation
										JOINT LeftForeArm
										{
											OFFSET 18.448900 0.000000 0.000000
											CHANNELS 3 Xrotation Yrotation Zrotation
											JOINT LeftHand
											{
												OFFSET 29.527798 0.000000 0.000000
												CHANNELS 3 Xrotation Yrotation Zrotation
												End Site
												{
													OFFSET 0 0 0
												}
											}
										}
									}
								}
							}
						}
						JOINT RightShoulder_virtual
						{
							OFFSET 0.000000 0.000000 0.000000
							CHANNELS 3 Xrotation Yrotation Zrotation
							JOINT RightShoulder
							{
								OFFSET -3.249400 8.794197 -1.372250
								CHANNELS 3 Xrotation Yrotation Zrotation
								JOINT RightShoulder_split
								{
									OFFSET -3.249400 8.794197 -1.372250
									CHANNELS 3 Xrotation Yrotation Zrotation
									JOINT RightArm
									{
										OFFSET -11.953299 -2.279007 -0.146200
										CHANNELS 3 Xrotation Yrotation Zrotation
										JOINT RightForeArm
										{
											OFFSET -18.448900 0.000000 0.000000
											CHANNELS 3 Xrotation Yrotation Zrotation
											JOINT RightHand
											{
												OFFSET -29.527802 0.000000 0.000000
												CHANNELS 3 Xrotation Yrotation Zrotation
												End Site
												{
													OFFSET 0 0 0
												}
											}
										}
									}
								}
							}
						}
					}
				}
			}
		}
	}
}
MOTION
Frames: 6
Frame Time: 0.03333333
4.422927 89.169594 -7.488167 0.000000 0.000000 0.000000 -1.471389 -63.982357 -0.750434 -47.759838 21.705189 40.010695 54.450606 4.959937 1.430812 11.363219 4.004039 -6.077465 1.961638 0.723177 -2.260459 0.000000 0.000000 0.000000 -0.142555 -62.011096 0.338567 -31.453926 -23.226816 -29.024831 37.425697 2.483771 -1.897598 -6.487368 -1.221689 12.081805 -2.068173 1.426416 0.773688 0.000000 0.000000 0.000000 0.079718 -61.648721 -0.273624 7.851695 1.094633 -4.802817 2.287539 0.916706 -2.609224 1.892575 3.373557 -1.194747 0.000000 0.000000 0.000000 2.549603 -0.153660 -2.723657 0.449471 0.785925 1.994263 0.200421 43.859708 -7.216102 0.000000 0.000000 0.000000 3.273971 0.373667 -2.547843 9.867965 9.759242 2.001264 -1.070132 -1.820637 4.715305 6.752069 -6.095642 -60.728735 -19.317658 -43.821654 -10.293541 0.000000 0.000000 0.000000 3.025581 0.251207 -3.098702 0.740684 2.408438 2.082373 3.886716 2.340538 1.296021 19.104253 20.320030 56.022974 -3.263022 45.075683 2.753397 0.000000 0.000000 0.000000 
4.041967 88.407593 -6.945751 0.000000 0.000000 0.000000 1.634827 -67.808752 2.528610 -46.906857 18.106434 36.319131 53.637646 3.406843 2.716219 8.363691 0.568801 -7.787070 -0.665272 0.318619 0.493289 0.000000 0.000000 0.000000 2.894946 -66.751275 3.648473 -33.396319 -20.504204 -28.380042 37.765718 3.695452 -2.144252 -8.702519 0.045623 13.192646 -0.007100 2.023954 -1.080469 0.000000 0.000000 0.000000 2.692814 -66.649894 2.700117 7.993184 1.454566 -6.032413 1.968497 1.577340 -3.302884 1.032191 2.381322 -0.230015 0.000000 0.000000 0.000000 2.371284 0.344211 -3.398030 0.818708 1.188026 1.729186 -0.073249 47.258332 -6.913587 0.000000 0.000000 0.000000 2.837431 0.757732 -3.265094 8.525823 8.950914 -0.405220 -0.048822 -0.102912 4.936516 -1.680248 0.612738 -56.525358 -13.834549 -40.911576 -6.009304 0.000000 0.000000 0.000000 2.519700 0.636365 -3.661001 0.274223 1.960067 2.047589 3.217507 3.546129 1.685508 17.584827 18.513822 58.628336 -4.401714 37.389111 3.353969 0.000000 0.000000 0.000000 
3.747922 87.727730 -6.131580 0.000000 0.000000 0.000000 6.217138 -71.039937 7.223082 -45.842491 15.404274 32.294599 51.589979 1.688733 3.435080 3.618764 -1.752136 -9.551734 -2.096309 -0.100890 2.378621 0.000000 0.000000 0.000000 6.854459 -70.938058 7.966913 -35.124982 -16.857066 -27.674586 38.888041 4.837179 -2.582446 -10.098305 0.920981 14.179189 0.961135 2.063703 -1.680394 0.000000 0.000000 0.000000 6.288028 -70.806003 6.531485 8.406143 1.601051 -7.194538 1.956176 2.046642 -3.867221 0.542134 1.608241 0.343472 0.000000 0.000000 0.000000 2.286697 0.764966 -3.973432 0.840165 1.529664 1.606176 -1.164035 50.627415 -6.432690 0.000000 0.000000 0.000000 2.561345 1.080525 -3.883046 7.257097 8.028990 -2.346491 1.106368 1.379371 5.211370 -9.021859 6.463226 -52.206667 -9.928566 -40.413041 -3.421632 0.000000 0.000000 0.000000 2.313466 0.987451 -4.096669 -0.044353 1.950458 2.192561 3.066497 4.717784 1.534423 16.255446 15.868444 60.521644 -5.612417 30.966411 4.138722 0.000000 0.000000 0.000000 
3.495922 87.140594 -5.068604 0.000000 0.000000 0.000000 11.226536 -73.251429 12.296126 -44.609868 13.580063 28.632139 49.026849 0.288048 3.446697 -1.440682 -2.213354 -11.173089 -1.644870 -0.164917 2.589950 0.000000 0.000000 0.000000 10.966010 -74.050165 12.465226 -36.287272 -13.345775 -27.310441 40.064640 5.829371 -3.113675 -10.739832 1.516682 15.163428 1.211110 1.676184 -1.110509 0.000000 0.000000 0.000000 9.599171 -73.556397 10.087666 9.114413 1.549622 -8.077729 2.307603 2.282332 -4.210321 0.687090 1.001288 1.032575 0.000000 0.000000 0.000000 2.384155 1.070337 -4.363589 0.421089 1.789745 1.592537 -3.035617 53.666053 -5.766016 0.000000 0.000000 0.000000 2.571626 1.330372 -4.314189 6.167393 6.879203 -4.018422 2.295952 2.121016 5.360381 -15.029129 11.098558 -48.190629 -7.068626 -41.464258 -1.824555 0.000000 0.000000 0.000000 2.460317 1.255379 -4.374225 -0.173715 2.344826 2.540622 3.416456 5.475016 1.040982 15.582342 12.969823 60.995051 -6.916836 26.871199 5.086666 0.000000 0.000000 0.000000 
3.346992 86.747650 -3.710434 0.000000 0.000000 0.000000 15.218090 -74.517016 16.170685 -43.304260 12.445094 25.943929 46.515224 -0.511541 2.785648 -5.386994 -1.039875 -12.576584 -0.319673 0.120080 1.423224 0.000000 0.000000 0.000000 14.004900 -75.918161 15.696594 -36.525772 -10.960496 -27.621261 40.451474 6.613034 -3.601509 -10.832012 2.106330 16.266739 1.429141 1.120456 0.055890 0.000000 0.000000 0.000000 11.786480 -75.118004 12.462470 9.984470 1.345678 -8.506084 2.960444 2.299212 -4.297019 0.641952 0.858548 1.283867 0.000000 0.000000 0.000000 2.724649 1.223276 -4.506357 -0.315975 1.992610 1.609048 -5.381083 56.052702 -5.046501 0.000000 0.000000 0.000000 2.891911 1.475428 -4.516082 5.301134 5.564366 -5.582043 2.842368 1.582200 5.174670 -19.286711 14.639020 -44.798777 -5.135975 -42.978016 -0.873875 0.000000 0.000000 0.000000 2.917352 1.407718 -4.451820 -0.131335 2.943886 3.150720 4.186557 5.546796 0.077298 15.503483 10.155493 60.301486 -8.373487 25.703569 6.232233 0.000000 0.000000 0.000000 
3.210977 86.659058 -2.556473 0.000000 0.000000 0.000000 16.773343 -74.871687 17.503132 -42.076496 11.732183 24.389868 44.541248 -0.966333 1.969083 -7.101982 0.837080 -14.017569 0.209400 0.563839 -0.373727 0.000000 0.000000 0.000000 15.124764 -76.471440 16.710994 -35.799402 -10.147790 -28.548830 39.603441 7.218640 -3.993502 -10.568491 2.711415 17.695101 1.871228 0.601439 1.157115 0.000000 0.000000 0.000000 12.225390 -75.530404 13.055538 10.845872 1.021147 -8.458038 3.790887 2.141827 -4.157254 0.839287 1.012026 1.160317 0.000000 0.000000 0.000000 3.304353 1.215577 -4.398627 -1.253927 2.119044 1.592526 -7.879438 57.702920 -4.383628 0.000000 0.000000 0.000000 3.475179 1.506172 -4.478085 4.652042 4.066000 -7.120424 2.506200 0.445775 4.554479 -22.279476 17.341384 -42.288877 -3.777900 -44.223562 -0.261364 0.000000 0.000000 0.000000 3.625531 1.436639 -4.329557 0.051489 3.511505 3.876321 5.033261 5.139452 -0.937082 15.808172 7.336935 59.025846 -10.065539 27.129921 7.638142 0.000000 0.000000 0.000000 
